<svg width="300" height="300" viewBox="0 0 300 300" fill="none" xmlns="http://www.w3.org/2000/svg">
<g clip-path="url(#clip0_79_58)">
<path d="M149.5 30C227.096 30 290 92.8983 290 170.494C290 248.09 227.096 311 149.5 311C71.904 311 9 248.096 9 170.5C9 166.709 9.15169 162.954 9.44629 159.239C14.6562 219.084 64.8864 266.034 126.083 266.034C190.746 266.034 243.167 213.615 243.167 148.951C243.167 84.4346 190.984 32.1073 126.523 31.8701C134 30.6403 141.675 30 149.5 30Z" fill="#16DFBD"/>
<g clip-path="url(#clip1_79_58)">
<path d="M122.93 54.8426C122.9 54.9659 122.873 55.0926 122.847 55.2193C122.87 55.1097 122.897 54.983 122.93 54.8426Z" fill="#FBFCF8"/>
<path d="M200 204.11C200 204.949 199.987 205.781 199.96 206.613C199.93 207.503 179.203 163.305 147.08 151.271C134.553 146.579 122.553 147.606 114.313 149.236C109.39 146.825 101.38 142.178 94.3966 133.743C76.2699 111.846 74.7232 76.7877 74.9932 76.7877C74.9966 76.7877 75.0032 76.8664 75.0032 77.0342C75.3232 102.897 122.863 127.055 125 127.055C127.137 127.055 129.253 127.147 131.343 127.329C144.233 128.435 156.197 132.894 166.407 139.853C166.91 140.195 167.407 140.545 167.9 140.901C187.307 154.825 200 177.945 200 204.11Z" fill="#FBFCF8"/>
<path d="M171.493 95.298C171.18 94.7877 170.87 94.2809 170.87 94.2809C170.633 93.8973 170.293 93.3357 170.257 93.274C169.463 91.911 173.797 86.2227 174.827 80.6781C175.033 79.5617 175 78.4966 175 76.3699C175 69.7569 173.81 64.5583 172.767 61.1405C167.367 43.4761 153.66 33.4042 146.013 29.7432C143.39 28.4864 140.583 27.5446 140.583 27.5446C140.583 27.5446 133.043 25.0001 125 25.0001C97.6033 25.0001 75.35 47.6405 75.0033 75.7055C75 75.9281 75 76.1473 75 76.3699C75 76.5925 75 76.8117 75.0033 77.0343C75.3233 102.897 94.2467 124.154 118.657 127.329C120.733 127.599 122.85 127.74 125 127.74C125.107 127.74 125.213 127.74 125.317 127.736C124.863 127.301 124.417 126.853 123.977 126.397C123.827 126.24 123.677 126.082 123.527 125.921C123.377 125.764 123.227 125.606 123.08 125.442C105.013 105.709 105.053 75.0514 122.813 55.3699C122.153 58.5343 122.033 61.2569 122.063 62.6131C122.367 76.8186 141.293 89.5583 151.847 96.6644C156.817 100.01 156.537 99.346 166.15 105.555C177.493 112.88 181.87 116.366 182.813 115.438C184.083 114.188 178.717 107.034 171.493 95.298ZM122.847 55.2192C122.87 55.1096 122.897 54.9829 122.93 54.8425C122.9 54.9658 122.873 55.0925 122.847 55.2192Z" fill="#FBFCF8"/>
<path d="M122.93 54.8426C122.9 54.9659 122.873 55.0926 122.847 55.2193C122.87 55.1097 122.897 54.983 122.93 54.8426Z" fill="#FBFCF8"/>
<path d="M122.843 55.3289C122.87 55.2021 122.897 55.0754 122.927 54.9521C122.893 55.0926 122.867 55.2193 122.843 55.3289ZM171.49 95.4076C171.177 94.8974 170.867 94.3905 170.867 94.3905C170.63 94.0069 170.29 93.4453 170.253 93.3837C169.953 92.8665 170.387 91.733 171.1 90.2193C169.453 90.5686 167.747 90.7535 166 90.7535C163.753 90.7535 161.573 90.4487 159.503 89.8734C157.137 92.5515 154.223 94.7124 150.947 96.1713C151.253 96.3768 151.55 96.5754 151.843 96.7741C156.813 100.12 156.533 99.4556 166.147 105.664C177.49 112.99 181.867 116.476 182.81 115.548C184.08 114.298 178.713 107.144 171.49 95.4076ZM122.927 54.9521C122.893 55.0926 122.867 55.2193 122.843 55.3289C122.87 55.2021 122.897 55.0754 122.927 54.9521Z" fill="#FF0000"/>
<g opacity="0.3">
<path d="M122.927 54.9521C122.897 55.0754 122.87 55.2021 122.843 55.3289C122.867 55.2193 122.893 55.0926 122.927 54.9521Z" fill="#FBFCF8"/>
</g>
<path d="M51 223.288C51 223.288 51 223.257 51.0033 223.24C51 223.267 51 223.291 51.0033 223.319C51 223.308 51 223.298 51 223.288Z" fill="#FBFCF8"/>
<path d="M201 223.288C201 223.288 201 223.308 200.997 223.319C201 223.291 201 223.267 200.997 223.24C201 223.257 201 223.271 201 223.288Z" fill="#FBFCF8"/>
<path d="M200.13 207.442C200.1 204.822 199.917 202.243 199.603 199.706C199.603 199.702 199.6 199.695 199.6 199.688C195.833 169.692 172.673 145.945 143.453 142.144C140.757 141.791 138.01 141.61 135.217 141.61C135.077 141.61 134.94 141.61 134.807 141.613C135.397 142.178 135.977 142.76 136.547 143.353C136.74 143.558 136.937 143.76 137.13 143.969C137.323 144.175 137.52 144.377 137.71 144.592C138.787 145.771 139.817 146.979 140.8 148.216C161.117 173.846 160.053 211.192 138.057 235.572C138.913 231.462 139.07 227.928 139.03 226.168C138.637 207.723 114.063 191.182 100.36 181.956C94.6834 178.13 94.2834 178.339 85.7634 172.952C76.7901 184.387 71.4268 198.928 71.4268 214.757C71.4268 217.733 71.6168 220.661 71.9834 223.531C72.3768 225.243 72.7968 226.764 73.2001 228.079C73.7668 229.932 74.4034 231.719 75.1034 233.445C78.3534 233.747 81.7801 234.024 85.3601 234.277C92.7734 245.065 112.82 252.791 136.39 252.791C159.96 252.791 180.007 245.062 187.42 234.277C190.133 234.086 192.757 233.877 195.28 233.661C198.31 226.096 200.023 217.832 200.13 209.171C200.133 208.884 200.133 208.599 200.133 208.308C200.133 208.017 200.133 207.736 200.13 207.445V207.442ZM138.013 235.767C137.983 235.911 137.95 236.075 137.907 236.257C137.947 236.096 137.98 235.932 138.013 235.767ZM136.39 247.243C119.477 247.243 104.827 242.264 97.7101 235.01C102.167 235.229 106.803 235.414 111.58 235.558C117.53 239.175 126.437 241.473 136.387 241.473C146.337 241.473 155.243 239.175 161.193 235.558C165.97 235.414 170.607 235.229 175.063 235.01C167.947 242.264 153.3 247.243 136.383 247.243H136.39ZM136.39 258.12C110.453 258.12 88.0734 250.322 77.6734 239.045C81.0268 245.5 85.2001 250.918 89.5334 255.342C102.427 260.558 118.703 263.671 136.39 263.671C152.627 263.671 167.673 261.048 180.007 256.589C184.063 252.613 187.62 248.113 190.567 243.178C178.95 252.182 159.027 258.123 136.39 258.123V258.12ZM136.39 269.223C124.233 269.223 112.657 267.938 102.157 265.613C104.257 266.949 106.213 268.024 107.933 268.846C111.337 270.473 114.983 271.702 114.983 271.702C114.983 271.702 124.773 275.007 135.217 275.007C146.88 275.007 157.827 271.846 167.287 266.315C157.693 268.195 147.273 269.226 136.39 269.226V269.223Z" fill="#FBFCF8"/>
</g>
</g>
<defs>
<clipPath id="clip0_79_58">
<rect width="300" height="300" rx="24" fill="white"/>
</clipPath>
<clipPath id="clip1_79_58">
<rect width="150" height="250" fill="white" transform="translate(51 25)"/>
</clipPath>
</defs>
</svg>
